HIERARCHY
ROOT Hips
{
	OFFSET 0.000000 0.000000 0.000000
	CHANNELS 6 Xposition Yposition Zposition Zrotation Yrotation Xrotation 
	JOINT LeftUpLeg_virtual
	{
		OFFSET 0.000000 0.000000 0.000000
		CHANNELS 3 Zrotation Yrotation Xrotation
		JOINT LeftUpLeg
		{
			OFFSET 10.205400 -3.823500 0.155100
			CHANNELS 3 Zrotation Yrotation Xrotation
			JOINT LeftLeg
			{
				OFFSET 0.708757 -12.982077 0.567790
				CHANNELS 3 Zrotation Yrotation Xrotation
				JOINT LeftFoot
				{
					OFFSET -0.708756 -10.717838 -2.184338
					CHANNELS 3 Zrotation Yrotation Xrotation
					JOINT LeftToeBase
					{
						OFFSET 0.108149 -7.191104 7.560241
						CHANNELS 3 Zrotation Yrotation Xrotation
						End Site
						{
							OFFSET 0.000000 0.000000 0.000000
						}
					}
				}
			}
		}
	}
	JOINT RightUpLeg_virtual
	{
		OFFSET 0.000000 0.000000 0.000000
		CHANNELS 3 Zrotation Yrotation Xrotation
		JOINT RightUpLeg
		{
			OFFSET -10.205400 -3.823500 0.005500
			CHANNELS 3 Zrotation Yrotation Xrotation
			JOINT RightLeg
			{
				OFFSET -0.708756 -12.982134 0.610632
				CHANNELS 3 Zrotation Yrotation Xrotation
				JOINT RightFoot
				{
					OFFSET 0.708754 -10.717769 -1.945823
					CHANNELS 3 Zrotation Yrotation Xrotation
					JOINT RightToeBase
					{
						OFFSET -0.108140 -7.191069 7.372968
						CHANNELS 3 Zrotation Yrotation Xrotation
						End Site
						{
							OFFSET 0.000000 0.000000 0.000000
						}
					}
				}
			}
		}
	}
	JOINT Spine_virtual
	{
		OFFSET 0.000000 0.000000 0.000000
		CHANNELS 3 Zrotation Yrotation Xrotation
		JOINT Spine
		{
			OFFSET 0.000000 6.876099 0.125700
			CHANNELS 3 Zrotation Yrotation Xrotation
			JOINT Spine1
			{
				OFFSET 0.000000 8.022060 0.146608
				CHANNELS 3 Zrotation Yrotation Xrotation
				JOINT Spine2
				{
					OFFSET 0.000000 9.168068 0.167552
					CHANNELS 3 Zrotation Yrotation Xrotation
					JOINT Neck_virtual
					{
						OFFSET 0.000000 0.000000 0.000000
						CHANNELS 3 Zrotation Yrotation Xrotation
						JOINT Neck
						{
							OFFSET 0.000000 10.314075 0.188496
							CHANNELS 3 Zrotation Yrotation Xrotation
							JOINT Head
							{
								OFFSET 0.000000 7.643700 -2.377400
								CHANNELS 3 Zrotation Yrotation Xrotation
								End Site
								{
									OFFSET 0.000000 0.000000 0.000000
								}
							}
						}
					}
					JOINT LeftShoulder_virtual
					{
						OFFSET 0.000000 0.000000 0.000000
						CHANNELS 3 Zrotation Yrotation Xrotation
						JOINT LeftShoulder
						{
							OFFSET 4.392200 8.824978 0.174984
							CHANNELS 3 Zrotation Yrotation Xrotation
							JOINT LeftArm
							{
								OFFSET 8.771219 -2.981674 -0.026999
								CHANNELS 3 Zrotation Yrotation Xrotation
								JOINT LeftForeArm
								{
									OFFSET 8.512804 0.000000 -0.000000
									CHANNELS 3 Zrotation Yrotation Xrotation
									JOINT LeftHand
									{
										OFFSET 18.484802 0.000000 -0.000000
										CHANNELS 3 Zrotation Yrotation Xrotation
										End Site
										{
											OFFSET 0.000000 0.000000 0.000000
										}
									}
								}
							}
						}
					}
					JOINT RightShoulder_virtual
					{
						OFFSET 0.000000 0.000000 0.000000
						CHANNELS 3 Zrotation Yrotation Xrotation
						JOINT RightShoulder
						{
							OFFSET -4.392200 8.824993 0.141379
							CHANNELS 3 Zrotation Yrotation Xrotation
							JOINT RightArm
							{
								OFFSET -8.771282 -2.981682 -0.094208
								CHANNELS 3 Zrotation Yrotation Xrotation
								JOINT RightForeArm
								{
									OFFSET -8.494598 0.000000 0.000000
									CHANNELS 3 Zrotation Yrotation Xrotation
									JOINT RightHand
									{
										OFFSET -18.483803 0.000000 0.000001
										CHANNELS 3 Zrotation Yrotation Xrotation
										End Site
										{
											OFFSET 0.000000 0.000000 0.000000
										}
									}
								}
							}
						}
					}
				}
			}
		}
	}
}
MOTION
Frames: 5
Frame Time: 0.033333
-5.355999 8.262560 2.769797 179.866325 12.127318 179.915639 6.202784 -10.540314 -16.697057 -27.362474 9.494099 -108.116150 17.517215 -10.475026 126.699736 -21.606209 -22.171151 2.858218 0.000000 0.000000 0.000000 4.554329 -2.642997 -12.928343 32.476849 -2.353614 -105.036104 -13.600689 -11.509869 106.813360 -10.395808 30.224062 31.501802 0.000000 0.000000 0.000000 -2.690840 -0.895491 2.733555 -1.584263 3.144294 2.034127 0.738315 -1.847646 6.849744 0.034120 -0.001397 -0.022704 0.991167 -1.322985 10.088797 2.850259 12.410081 39.030372 0.000000 0.000000 0.000000 4.535571 -0.672239 3.362948 -7.596024 2.792801 5.474079 -45.480843 17.789832 -17.019923 -170.485046 -84.766172 -171.155183 0.000000 0.000000 0.000000 -1.702270 0.834312 2.234231 15.012049 13.062670 4.421012 43.637638 -18.497966 -18.590989 -139.347238 85.848805 -148.662059 0.000000 0.000000 0.000000 
-5.237731 8.249152 2.762037 179.815125 12.000262 179.898959 6.519234 -10.557090 -16.671081 -27.398428 9.857004 -108.154782 17.493632 -10.598808 126.744870 -22.262484 -22.284679 3.329517 0.000000 0.000000 0.000000 4.932512 -2.656951 -13.074098 32.440786 -2.183054 -105.011310 -13.556245 -11.388894 107.030096 -10.496432 30.114922 31.252115 0.000000 0.000000 0.000000 -2.400985 -0.954359 2.765415 -1.154821 3.263778 1.996385 0.626909 -1.932400 6.773429 0.026714 -0.039607 -0.078879 0.915348 -1.415610 10.066404 2.471346 12.482981 39.187883 0.000000 0.000000 0.000000 4.433635 -0.723439 3.353151 -7.776502 3.144805 5.564556 -46.391294 17.853893 -16.871455 -170.366884 -84.605444 -171.209552 0.000000 0.000000 0.000000 -1.815805 0.799795 2.133311 14.939581 13.100438 4.622553 43.966433 -18.136565 -18.168846 -144.961695 85.175983 -154.363614 0.000000 0.000000 0.000000 
-5.138996 8.237897 2.758248 179.812462 11.897425 179.941757 6.932533 -10.510038 -16.597640 -27.546757 10.225433 -108.142201 17.475719 -10.620487 126.718560 -22.922361 -22.350580 3.753395 0.000000 0.000000 0.000000 5.327124 -2.588190 -13.081064 32.364623 -1.958739 -105.181129 -13.464418 -11.241002 107.202073 -10.582839 30.060694 31.067334 0.000000 0.000000 0.000000 -2.064104 -1.075609 2.819827 -0.683017 3.387634 1.920169 0.516693 -1.946668 6.703985 0.038240 -0.005862 -0.030826 0.800271 -1.433067 9.981323 1.961970 12.177238 39.390695 0.000000 0.000000 0.000000 4.327356 -0.759293 3.206695 -8.004276 3.454252 5.581880 -47.304152 17.991704 -16.361126 -170.809330 -84.435700 -170.675417 0.000000 0.000000 0.000000 -1.958425 0.742765 2.018906 14.964075 13.146776 4.888933 44.251044 -17.705713 -17.643338 -147.283372 84.707501 -156.698214 0.000000 0.000000 0.000000 
-5.050490 8.229629 2.766098 179.817093 11.799457 179.868374 7.322788 -10.399788 -16.431005 -27.811304 10.636301 -108.066078 17.401775 -10.520368 126.647239 -23.390015 -22.421448 4.054328 0.000000 0.000000 0.000000 5.702441 -2.438876 -12.908319 32.272415 -1.728785 -105.443750 -13.355719 -11.132293 107.320549 -10.676544 30.036266 30.874811 0.000000 0.000000 0.000000 -1.729918 -0.909641 3.020703 -0.173983 3.367252 1.857760 0.439279 -2.074786 6.593684 0.048202 -0.066697 -0.097485 0.695172 -1.457168 9.935219 1.639872 12.384620 39.536902 0.000000 0.000000 0.000000 4.267132 -0.775354 3.175122 -8.216730 3.752006 5.587778 -48.176309 18.182570 -15.833268 -170.416211 -84.356040 -170.964361 0.000000 0.000000 0.000000 -2.016375 0.704681 1.956325 15.083144 13.200689 5.126117 44.548406 -17.365602 -17.090303 -148.552721 84.277103 -157.940570 0.000000 0.000000 0.000000 
-4.979115 8.218029 2.777575 179.770360 11.781007 179.869644 7.619266 -10.256258 -16.227073 -28.065500 11.026509 -108.031852 17.544133 -10.569405 126.558119 -24.410748 -22.239606 4.425719 0.000000 0.000000 0.000000 6.007345 -2.283828 -12.996705 32.170860 -1.630902 -105.509948 -13.192108 -11.023018 107.419485 -10.714230 30.073890 30.747743 0.000000 0.000000 0.000000 -1.473568 -1.087356 3.140025 0.293712 3.490886 1.797565 0.352964 -2.042625 6.504788 -0.015773 -0.027749 -0.020574 0.684810 -1.487927 9.771962 1.233642 12.335348 39.647076 0.000000 0.000000 0.000000 4.270915 -0.780649 2.966417 -8.474405 3.973283 5.643276 -49.021989 18.285583 -15.222332 -169.861791 -84.358710 -171.403747 0.000000 0.000000 0.000000 -2.045434 0.687946 1.776359 15.208830 13.242891 5.410780 44.861809 -17.029729 -16.436106 -148.280566 84.132180 -157.651093 0.000000 0.000000 0.000000 
